# xmcd
#
# Track frame offsets:
#	150
#	12332
#	23367
#	39142
#	54107
#	66345
#	78342
#	92625
#	105695
#	121137
#	137030
#	152185
#
# Disc length: 2194 seconds
#
# Revision: 0
# Processed by: cddbd v1.5.1PL2 Copyright (c) Steve Scherf et al.
# Submitted via: audiograbber 1.83.01
#
DISCID=8608900c
DTITLE=MANOS HATZIDAKIS - MEGALOI SYNTHETES
DYEAR=1900
DGENRE=Greek
TTITLE0=GALANI - Hasapiko Saranta
TTITLE1=MPITHIKOTSIS - H kyra
TTITLE2=HORODIA THALEIAS VYZANTIOU - Mia Panagia
TTITLE3=MITSIAS, GALANI - Enas mythos
TTITLE4=LINTA - Thalassopoulia mou
TTITLE5=MARINOS, HORODIA - Odos oneiron
TTITLE6=VOUGIOUKLAKI - O amaksas
TTITLE7=FYTOUSI - Ferte mou ena mantolino
TTITLE8=MPITHIKOTSIS - Milise mou
TTITLE9=GALANI - H pikra simera
TTITLE10=VOUGIOUKLAKI - S' agapo
TTITLE11=MPITHIKOTSIS - Fildisenio karavaki
EXTD=
EXTT0=
EXTT1=
EXTT2=
EXTT3=
EXTT4=
EXTT5=
EXTT6=
EXTT7=
EXTT8=
EXTT9=
EXTT10=
EXTT11=
PLAYORDER=
